<svg width="120" height="40" viewBox="0 0 120 40" fill="none" xmlns="http://www.w3.org/2000/svg">
<g clip-path="url(#clip0_555_1370)">
<path d="M110.135 0.00013H9.53468C9.16798 0.00013 8.80568 0.00013 8.43995 0.00213C8.1338 0.00413 7.83009 0.00994 7.521 0.01483C6.84951 0.0227318 6.17961 0.0818063 5.5171 0.19154C4.85552 0.303663 4.21467 0.515046 3.61622 0.81854C3.0185 1.1246 2.47235 1.5223 1.99757 1.9972C1.5203 2.47077 1.12246 3.01815 0.81935 3.61829C0.5154 4.21724 0.304641 4.85907 0.19435 5.52161C0.0830109 6.18332 0.0230984 6.85265 0.01515 7.52361C0.00587 7.83021 0.00489 8.13783 0 8.44447V31.5587C0.00489 31.8692 0.00587 32.17 0.01515 32.4806C0.0231008 33.1516 0.0830134 33.8209 0.19435 34.4825C0.304336 35.1455 0.515108 35.7877 0.81935 36.3868C1.12233 36.985 1.52022 37.5302 1.99757 38.0011C2.47054 38.4781 3.01705 38.8761 3.61622 39.1798C4.21467 39.4841 4.85545 39.6968 5.5171 39.8106C6.17972 39.9195 6.84956 39.9786 7.521 39.9874C7.83009 39.9942 8.1338 39.9981 8.43995 39.9981C8.80567 40.0001 9.168 40.0001 9.53468 40.0001H110.135C110.494 40.0001 110.859 40.0001 111.219 39.9981C111.523 39.9981 111.836 39.9942 112.141 39.9874C112.811 39.9791 113.479 39.92 114.141 39.8106C114.804 39.696 115.448 39.4834 116.049 39.1798C116.647 38.8759 117.193 38.478 117.666 38.0011C118.142 37.5284 118.541 36.9836 118.848 36.3868C119.15 35.7872 119.358 35.1451 119.467 34.4825C119.578 33.8208 119.64 33.1516 119.652 32.4806C119.656 32.17 119.656 31.8692 119.656 31.5587C119.664 31.1954 119.664 30.8341 119.664 30.4649V9.53626C119.664 9.17005 119.664 8.80677 119.656 8.44447C119.656 8.13783 119.656 7.83021 119.652 7.52357C119.64 6.85255 119.578 6.18337 119.467 5.52157C119.358 4.85941 119.149 4.21763 118.848 3.61825C118.23 2.41533 117.252 1.43616 116.049 0.81845C115.448 0.515697 114.804 0.30437 114.141 0.19145C113.48 0.0812328 112.811 0.0221378 112.141 0.01469C111.836 0.00981 111.523 0.00395 111.219 0.002C110.859 0 110.494 0.00013 110.135 0.00013Z" fill="black"/>
<path d="M8.44487 39.125C8.14019 39.125 7.84287 39.1211 7.54058 39.1143C6.91436 39.1061 6.2896 39.0516 5.67144 38.9512C5.09503 38.8519 4.53664 38.6673 4.0147 38.4033C3.49754 38.1415 3.02585 37.7983 2.6177 37.3867C2.20364 36.98 1.85891 36.5082 1.59719 35.9902C1.33258 35.4688 1.14945 34.9099 1.05419 34.333C0.951311 33.7131 0.895651 33.0863 0.887687 32.458C0.881347 32.2471 0.873047 31.5449 0.873047 31.5449V8.44434C0.873047 8.44434 0.881887 7.75293 0.887737 7.5498C0.895363 6.92248 0.950699 6.29665 1.05327 5.67773C1.14871 5.09925 1.33197 4.53875 1.59673 4.01563C1.85749 3.49794 2.2003 3.02586 2.61187 2.61768C3.02297 2.20562 3.49617 1.8606 4.01421 1.59521C4.53495 1.33209 5.09228 1.14873 5.66753 1.05127C6.28772 0.949836 6.91465 0.894996 7.54304 0.88721L8.44536 0.875H111.214L112.127 0.8877C112.75 0.895099 113.371 0.94945 113.985 1.05029C114.566 1.14898 115.13 1.33362 115.656 1.59814C116.694 2.13299 117.539 2.97916 118.071 4.01807C118.332 4.53758 118.512 5.09351 118.607 5.66699C118.71 6.29099 118.768 6.92174 118.78 7.5542C118.783 7.8374 118.783 8.1416 118.783 8.44434C118.791 8.81934 118.791 9.17627 118.791 9.53613V30.4648C118.791 30.8281 118.791 31.1826 118.783 31.54C118.783 31.8652 118.783 32.1631 118.779 32.4697C118.768 33.0909 118.711 33.7104 118.608 34.3232C118.515 34.9043 118.333 35.4675 118.068 35.9932C117.805 36.5056 117.462 36.9733 117.053 37.3789C116.644 37.7927 116.172 38.1379 115.653 38.4014C115.128 38.6674 114.566 38.8527 113.985 38.9512C113.367 39.0522 112.742 39.1067 112.116 39.1143C111.823 39.1211 111.517 39.125 111.219 39.125L110.135 39.127L8.44487 39.125Z" fill="white"/>
<path d="M24.997 19.8892C25.0082 19.0212 25.2388 18.1702 25.6672 17.4153C26.0957 16.6604 26.7081 16.0261 27.4476 15.5715C26.9779 14.9006 26.3581 14.3485 25.6377 13.959C24.9172 13.5695 24.1158 13.3533 23.2972 13.3277C21.551 13.1444 19.8581 14.3727 18.9682 14.3727C18.0612 14.3727 16.6911 13.3459 15.2158 13.3763C14.2615 13.4071 13.3314 13.6846 12.5163 14.1817C11.7011 14.6789 11.0287 15.3787 10.5644 16.213C8.55327 19.695 10.0534 24.8124 11.9799 27.627C12.9438 29.0052 14.0703 30.5447 15.5443 30.4901C16.9867 30.4303 17.5254 29.5704 19.2665 29.5704C20.9914 29.5704 21.4968 30.4901 23.0007 30.4554C24.5485 30.4303 25.5237 29.0711 26.4537 27.6798C27.1463 26.6978 27.6792 25.6124 28.0327 24.4639C27.1335 24.0836 26.3662 23.447 25.8263 22.6335C25.2865 21.82 24.9981 20.8655 24.997 19.8892Z" fill="black"/>
<path d="M22.1573 11.4766C23.0012 10.4635 23.417 9.16135 23.3163 7.84668C22.027 7.98209 20.8361 8.59829 19.9808 9.5725C19.5626 10.0484 19.2423 10.6021 19.0382 11.2019C18.8341 11.8017 18.7503 12.4358 18.7914 13.068C19.4363 13.0746 20.0743 12.9349 20.6573 12.6592C21.2403 12.3835 21.7532 11.9792 22.1573 11.4766Z" fill="black"/>
<path d="M42.3027 27.1392H37.5693L36.4326 30.4956H34.4277L38.9111 18.0776H40.9941L45.4775 30.4956H43.4385L42.3027 27.1392ZM38.0596 25.5904H41.8116L39.962 20.1431H39.9102L38.0596 25.5904Z" fill="black"/>
<path d="M55.1592 25.9695C55.1592 28.7829 53.6533 30.5905 51.3809 30.5905C50.8052 30.6207 50.2327 30.4881 49.7289 30.2079C49.2251 29.9278 48.8104 29.5114 48.5323 29.0065H48.4893V33.4909H46.6309V21.4421H48.4297V22.948H48.4639C48.7548 22.4455 49.1766 22.0313 49.6842 21.7495C50.1918 21.4676 50.7664 21.3287 51.3467 21.3474C53.6446 21.3474 55.1592 23.1638 55.1592 25.9695ZM53.249 25.9695C53.249 24.1365 52.3018 22.9314 50.8565 22.9314C49.4365 22.9314 48.4815 24.1618 48.4815 25.9695C48.4815 27.7937 49.4365 29.0154 50.8565 29.0154C52.3018 29.0154 53.249 27.8191 53.249 25.9695Z" fill="black"/>
<path d="M65.1245 25.9695C65.1245 28.7829 63.6182 30.5905 61.3457 30.5905C60.7701 30.6207 60.1976 30.4881 59.6938 30.2079C59.19 29.9278 58.7753 29.5114 58.4971 29.0065H58.4541V33.4909H56.5957V21.4421H58.3945V22.948H58.4287C58.7197 22.4455 59.1414 22.0313 59.649 21.7495C60.1567 21.4676 60.7312 21.3287 61.3115 21.3474C63.6094 21.3474 65.1245 23.1638 65.1245 25.9695ZM63.2139 25.9695C63.2139 24.1365 62.2666 22.9314 60.8213 22.9314C59.4014 22.9314 58.4463 24.1618 58.4463 25.9695C58.4463 27.7937 59.4014 29.0154 60.8213 29.0154C62.2666 29.0154 63.2139 27.8191 63.2139 25.9695Z" fill="black"/>
<path d="M71.711 27.0357C71.8487 28.2671 73.045 29.0757 74.6797 29.0757C76.2461 29.0757 77.3731 28.2671 77.3731 27.1567C77.3731 26.1929 76.6934 25.6157 75.084 25.2202L73.4747 24.8325C71.1944 24.2817 70.1358 23.2153 70.1358 21.4849C70.1358 19.3423 72.003 17.8706 74.6534 17.8706C77.2784 17.8706 79.0772 19.3423 79.1378 21.4849H77.2618C77.1495 20.2456 76.125 19.4976 74.628 19.4976C73.1309 19.4976 72.1065 20.2544 72.1065 21.356C72.1065 22.2339 72.7608 22.7505 74.3614 23.146L75.7295 23.4819C78.2774 24.0844 79.335 25.1079 79.335 26.9243C79.335 29.2475 77.4854 30.7026 74.542 30.7026C71.7881 30.7026 69.9287 29.2817 69.8086 27.0356L71.711 27.0357Z" fill="black"/>
<path d="M83.3476 19.2993V21.4419H85.0693V22.9136H83.3476V27.9048C83.3476 28.6802 83.6924 29.0415 84.4492 29.0415C84.6536 29.0379 84.8577 29.0236 85.0605 28.9985V30.4614C84.7203 30.525 84.3744 30.5538 84.0283 30.5473C82.1953 30.5473 81.4805 29.8589 81.4805 28.103V22.9136H80.1641V21.4419H81.4804V19.2993H83.3476Z" fill="black"/>
<path d="M86.0645 25.9692C86.0645 23.1206 87.7422 21.3306 90.3584 21.3306C92.9834 21.3306 94.6533 23.1206 94.6533 25.9692C94.6533 28.8257 92.9922 30.6079 90.3584 30.6079C87.7256 30.6079 86.0645 28.8257 86.0645 25.9692ZM92.7598 25.9692C92.7598 24.0151 91.8643 22.8618 90.3584 22.8618C88.8525 22.8618 87.957 24.0239 87.957 25.9692C87.957 27.9311 88.8525 29.0757 90.3584 29.0757C91.8643 29.0757 92.7598 27.9311 92.7598 25.9692Z" fill="black"/>
<path d="M96.1856 21.442H97.958V22.983H98.001C98.1209 22.5017 98.4029 22.0764 98.7995 21.7785C99.1961 21.4806 99.6831 21.3284 100.179 21.3473C100.393 21.3465 100.606 21.3698 100.815 21.4166V23.1549C100.545 23.0723 100.263 23.0343 99.9805 23.0426C99.7105 23.0316 99.4413 23.0792 99.1915 23.1821C98.9417 23.285 98.717 23.4408 98.5331 23.6386C98.3491 23.8365 98.2101 24.0719 98.1257 24.3286C98.0413 24.5852 98.0134 24.8571 98.044 25.1256V30.4957H96.1855L96.1856 21.442Z" fill="black"/>
<path d="M109.384 27.8364C109.134 29.48 107.533 30.6079 105.485 30.6079C102.852 30.6079 101.217 28.8433 101.217 26.0122C101.217 23.1724 102.86 21.3306 105.407 21.3306C107.912 21.3306 109.487 23.0513 109.487 25.7964V26.4331H103.093V26.5454C103.063 26.8786 103.105 27.2143 103.215 27.5301C103.325 27.846 103.501 28.1347 103.732 28.3773C103.962 28.6198 104.241 28.8106 104.551 28.9369C104.861 29.0632 105.194 29.1222 105.528 29.1099C105.967 29.151 106.408 29.0493 106.785 28.8199C107.162 28.5904 107.454 28.2455 107.619 27.8364L109.384 27.8364ZM103.102 25.1343H107.628C107.645 24.8347 107.599 24.5349 107.495 24.2537C107.39 23.9725 107.228 23.7159 107.02 23.5001C106.811 23.2844 106.56 23.114 106.283 22.9998C106.005 22.8856 105.707 22.83 105.407 22.8364C105.105 22.8346 104.805 22.8928 104.525 23.0075C104.245 23.1222 103.99 23.2913 103.776 23.5049C103.561 23.7186 103.391 23.9726 103.276 24.2522C103.16 24.5319 103.101 24.8316 103.102 25.1343Z" fill="black"/>
<path d="M36.7393 11.2534H37.5371C37.6744 11.2705 37.8138 11.259 37.9465 11.2195C38.0792 11.1801 38.2022 11.1136 38.3079 11.0242C38.4136 10.9349 38.4997 10.8246 38.5606 10.7003C38.6216 10.576 38.6561 10.4405 38.6621 10.3022C38.6621 9.75193 38.248 9.39646 37.5459 9.39646C37.4052 9.3768 37.262 9.38553 37.1247 9.42214C36.9874 9.45875 36.8588 9.52249 36.7466 9.60961C36.6344 9.69672 36.5407 9.80544 36.4712 9.92935C36.4017 10.0533 36.3577 10.1898 36.3418 10.331H35.4658C35.4809 10.0747 35.5485 9.82428 35.6646 9.59527C35.7807 9.36626 35.9426 9.16359 36.1404 8.99989C36.3382 8.83618 36.5676 8.71494 36.8142 8.64372C37.0609 8.5725 37.3196 8.55282 37.5742 8.58591C38.749 8.58591 39.5762 9.24362 39.5762 10.1904C39.5789 10.5076 39.4728 10.8161 39.2755 11.0645C39.0783 11.3129 38.8018 11.486 38.4922 11.5551V11.6255C38.8592 11.6417 39.2048 11.8027 39.4535 12.073C39.7022 12.3434 39.8337 12.7013 39.8193 13.0683C39.7922 13.3322 39.7126 13.588 39.5853 13.8208C39.458 14.0535 39.2855 14.2585 39.078 14.4237C38.8704 14.5889 38.632 14.7111 38.3766 14.7829C38.1212 14.8548 37.8541 14.875 37.5908 14.8423C37.327 14.8782 37.0587 14.8607 36.8018 14.7907C36.5449 14.7208 36.3047 14.5998 36.0955 14.4351C35.8864 14.2703 35.7126 14.0651 35.5844 13.8317C35.4562 13.5983 35.3764 13.3415 35.3496 13.0766H36.2393C36.293 13.6474 36.8174 14.0156 37.5908 14.0156C38.3643 14.0156 38.8691 13.6021 38.8691 13.0191C38.8691 12.4277 38.3935 12.0635 37.5625 12.0635H36.7393V11.2534Z" fill="black"/>
<path d="M40.8301 13.4243C40.8301 12.6138 41.4346 12.1465 42.5049 12.0801L43.7246 12.0098V11.6211C43.7246 11.1455 43.4111 10.877 42.8027 10.877C42.3066 10.877 41.9639 11.0591 41.8643 11.3774H41.0039C41.0947 10.604 41.8232 10.1079 42.8447 10.1079C43.9736 10.1079 44.6104 10.6699 44.6104 11.6211V14.6978H43.7539V14.0649H43.6836C43.5409 14.2919 43.3405 14.477 43.1029 14.6012C42.8652 14.7254 42.5989 14.7843 42.3311 14.7719C42.142 14.7916 41.951 14.7714 41.7702 14.7127C41.5894 14.654 41.423 14.5581 41.2816 14.4311C41.1402 14.3042 41.0269 14.149 40.9492 13.9756C40.8714 13.8021 40.8308 13.6144 40.8301 13.4243ZM43.7246 13.0395V12.6631L42.625 12.7334C42.0048 12.7749 41.7236 12.9858 41.7236 13.3828C41.7236 13.7881 42.0751 14.0239 42.5586 14.0239C42.7002 14.0383 42.8433 14.024 42.9793 13.9819C43.1153 13.9398 43.2415 13.8708 43.3503 13.7789C43.4591 13.6871 43.5483 13.5743 43.6126 13.4473C43.6769 13.3202 43.715 13.1816 43.7246 13.0395Z" fill="black"/>
<path d="M46.9687 10.9429V14.6978H46.0801V10.1948H49.045V10.9428L46.9687 10.9429Z" fill="black"/>
<path d="M54.4297 12.4443C54.4297 13.875 53.7061 14.7719 52.5693 14.7719C52.2903 14.791 52.0116 14.7299 51.7661 14.5959C51.5206 14.4619 51.3185 14.2606 51.1836 14.0156H51.1133V16.1948H50.2246V10.1948H51.0801V10.939H51.1465C51.2838 10.6854 51.4886 10.4747 51.7381 10.3302C51.9877 10.1857 52.2723 10.113 52.5606 10.1201C53.7061 10.1201 54.4297 11.0131 54.4297 12.4443ZM53.5156 12.4443C53.5156 11.4931 53.0654 10.9184 52.3125 10.9184C51.5645 10.9184 51.0967 11.5053 51.0967 12.4482C51.0967 13.3867 51.5645 13.9741 52.3086 13.9741C53.0654 13.9741 53.5156 13.3994 53.5156 12.4443Z" fill="black"/>
<path d="M55.6133 16.3106V15.5454C55.7095 15.5576 55.8064 15.5632 55.9033 15.562C56.0927 15.576 56.2805 15.5197 56.4308 15.4037C56.5811 15.2877 56.6833 15.1203 56.7178 14.9336L56.7842 14.7144L55.1543 10.1948H56.1221L57.251 13.7715H57.3213L58.4463 10.1948H59.3887L57.71 14.8838C57.3252 15.9795 56.8995 16.3311 55.9815 16.3311C55.9073 16.3311 55.6963 16.3228 55.6133 16.3106Z" fill="black"/>
<path d="M60.082 13.42H60.9668C61.0537 13.817 61.4258 14.024 61.9463 14.024C62.5381 14.024 62.9014 13.7633 62.9014 13.358C62.9014 12.9239 62.5752 12.7169 61.9463 12.7169H61.2725V12.0265H61.9346C62.4717 12.0265 62.7451 11.8199 62.7451 11.4435C62.7451 11.1129 62.4805 10.8605 61.9346 10.8605C61.4375 10.8605 61.0742 11.0714 61.0166 11.4269H60.1602C60.2242 11.0184 60.446 10.6514 60.7778 10.4048C61.1096 10.1581 61.525 10.0516 61.9346 10.108C63.0049 10.108 63.6172 10.5919 63.6172 11.3527C63.6222 11.5645 63.5543 11.7717 63.4249 11.9395C63.2955 12.1073 63.1124 12.2256 62.9062 12.2746V12.3449C63.1517 12.3765 63.377 12.4972 63.5394 12.6839C63.7017 12.8707 63.7899 13.1106 63.7871 13.358C63.7871 14.214 63.0586 14.7804 61.9463 14.7804C60.9629 14.7804 60.1641 14.3297 60.082 13.42Z" fill="black"/>
<path d="M65.0664 14.6978V10.1948H65.9473V13.292H66.0176L68.0928 10.1948H68.9736V14.6978H68.0928V11.584H68.0264L65.9473 14.6978L65.0664 14.6978Z" fill="black"/>
<path d="M73.8272 10.9428H72.4092V14.6977H71.5196V10.9428H70.1016V10.1948H73.8272V10.9428Z" fill="black"/>
<path d="M78.6139 13.482C78.4928 13.8935 78.231 14.2494 77.8742 14.4875C77.5174 14.7257 77.0883 14.8309 76.6618 14.7847C76.3651 14.7926 76.0703 14.7358 75.7978 14.6182C75.5253 14.5007 75.2816 14.3253 75.0837 14.1041C74.8858 13.883 74.7384 13.6214 74.6517 13.3376C74.565 13.0538 74.5411 12.7545 74.5817 12.4605C74.5422 12.1656 74.5665 11.8657 74.653 11.581C74.7395 11.2964 74.8861 11.0336 75.083 10.8105C75.2799 10.5874 75.5224 10.4093 75.7941 10.2881C76.0658 10.1669 76.3604 10.1054 76.6579 10.108C77.9108 10.108 78.6676 10.964 78.6676 12.378V12.6881H75.488V12.7379C75.4739 12.9032 75.4945 13.0696 75.5486 13.2264C75.6027 13.3832 75.6889 13.527 75.8019 13.6485C75.9148 13.77 76.0519 13.8665 76.2044 13.9318C76.3569 13.9972 76.5213 14.0299 76.6872 14.0279C76.8996 14.0533 77.1148 14.0149 77.3054 13.9177C77.496 13.8205 77.6533 13.6689 77.7575 13.482L78.6139 13.482ZM75.4879 12.0308H77.7614C77.7726 11.8798 77.7521 11.7281 77.7012 11.5854C77.6503 11.4427 77.5702 11.3123 77.4659 11.2024C77.3616 11.0926 77.2355 11.0058 77.0957 10.9475C76.9558 10.8893 76.8054 10.861 76.654 10.8643C76.5002 10.8623 76.3476 10.891 76.2052 10.9489C76.0627 11.0068 75.9333 11.0926 75.8246 11.2014C75.7159 11.3101 75.6301 11.4396 75.5723 11.582C75.5145 11.7245 75.4858 11.8771 75.4879 12.0308Z" fill="black"/>
<path d="M82.3809 10.1948H84.4111C85.292 10.1948 85.8086 10.6411 85.8086 11.3398C85.81 11.5615 85.7351 11.777 85.5967 11.9501C85.4582 12.1233 85.2644 12.2436 85.0479 12.291V12.3613C85.3108 12.3779 85.5574 12.4949 85.7366 12.6881C85.9158 12.8813 86.0139 13.1359 86.0107 13.3994C86.0107 14.185 85.4199 14.6977 84.4316 14.6977H82.3809V10.1948ZM83.2617 10.877V12.043H84.1426C84.6797 12.043 84.9365 11.8364 84.9365 11.4556C84.9365 11.1045 84.7129 10.8769 84.2412 10.8769L83.2617 10.877ZM83.2617 12.6963V14.0156H84.3155C84.8409 14.0156 85.1221 13.7837 85.1221 13.3579C85.1221 12.9072 84.8038 12.6963 84.2041 12.6963L83.2617 12.6963Z" fill="black"/>
</g>
<defs>
<clipPath id="clip0_555_1370">
<rect width="119.664" height="40" fill="white"/>
</clipPath>
</defs>
</svg>
