<svg width="135" height="40" viewBox="0 0 135 40" fill="none" xmlns="http://www.w3.org/2000/svg">
<path d="M5 0.5H130C132.524 0.5 134.5 2.47614 134.5 5V35C134.5 37.4304 132.517 39.5 130 39.5H5C2.47614 39.5 0.5 37.5239 0.5 35V5C0.5 2.47614 2.47614 0.5 5 0.5Z" stroke="black"/>
<path d="M68.0996 21.8001C65.6996 21.8001 63.7996 23.6001 63.7996 26.1001C63.7996 28.5001 65.6996 30.4001 68.0996 30.4001C70.4996 30.4001 72.3996 28.6001 72.3996 26.1001C72.3996 23.5001 70.4996 21.8001 68.0996 21.8001ZM68.0996 28.6001C66.7996 28.6001 65.6996 27.5001 65.6996 26.0001C65.6996 24.5001 66.7996 23.4001 68.0996 23.4001C69.3996 23.4001 70.4996 24.4001 70.4996 26.0001C70.4996 27.5001 69.3996 28.6001 68.0996 28.6001ZM58.7996 21.8001C56.3996 21.8001 54.4996 23.6001 54.4996 26.1001C54.4996 28.5001 56.3996 30.4001 58.7996 30.4001C61.1996 30.4001 63.0996 28.6001 63.0996 26.1001C63.0996 23.5001 61.1996 21.8001 58.7996 21.8001ZM58.7996 28.6001C57.4996 28.6001 56.3996 27.5001 56.3996 26.0001C56.3996 24.5001 57.4996 23.4001 58.7996 23.4001C60.0996 23.4001 61.1996 24.4001 61.1996 26.0001C61.1996 27.5001 60.0996 28.6001 58.7996 28.6001ZM47.6996 23.1001V24.9001H51.9996C51.8996 25.9001 51.4996 26.7001 50.9996 27.2001C50.3996 27.8001 49.3996 28.5001 47.6996 28.5001C44.9996 28.5001 42.9996 26.4001 42.9996 23.7001C42.9996 21.0001 45.0996 18.9001 47.6996 18.9001C49.0996 18.9001 50.1996 19.5001 50.9996 20.2001L52.2996 18.9001C51.1996 17.9001 49.7996 17.1001 47.7996 17.1001C44.1996 17.1001 41.0996 20.1001 41.0996 23.7001C41.0996 27.3001 44.1996 30.3001 47.7996 30.3001C49.7996 30.3001 51.1996 29.7001 52.3996 28.4001C53.5996 27.2001 53.9996 25.5001 53.9996 24.2001C53.9996 23.8001 53.9996 23.4001 53.8996 23.1001H47.6996ZM93.0996 24.5001C92.6996 23.5001 91.6996 21.8001 89.4996 21.8001C87.2996 21.8001 85.4996 23.5001 85.4996 26.1001C85.4996 28.5001 87.2996 30.4001 89.6996 30.4001C91.5996 30.4001 92.7996 29.2001 93.1996 28.5001L91.7996 27.5001C91.2996 28.2001 90.6996 28.7001 89.6996 28.7001C88.6996 28.7001 88.0996 28.3001 87.5996 27.4001L93.2996 25.0001L93.0996 24.5001ZM87.2996 25.9001C87.2996 24.3001 88.5996 23.4001 89.4996 23.4001C90.1996 23.4001 90.8996 23.8001 91.0996 24.3001L87.2996 25.9001ZM82.5996 30.0001H84.4996V17.5001H82.5996V30.0001ZM79.5996 22.7001C79.0996 22.2001 78.2996 21.7001 77.2996 21.7001C75.1996 21.7001 73.1996 23.6001 73.1996 26.0001C73.1996 28.4001 75.0996 30.2001 77.2996 30.2001C78.2996 30.2001 79.0996 29.7001 79.4996 29.2001H79.5996V29.8001C79.5996 31.4001 78.6996 32.3001 77.2996 32.3001C76.1996 32.3001 75.3996 31.5001 75.1996 30.8001L73.5996 31.5001C74.0996 32.6001 75.2996 34.0001 77.3996 34.0001C79.5996 34.0001 81.3996 32.7001 81.3996 29.6001V22.0001H79.5996V22.7001ZM77.3996 28.6001C76.0996 28.6001 74.9996 27.5001 74.9996 26.0001C74.9996 24.5001 76.0996 23.4001 77.3996 23.4001C78.6996 23.4001 79.6996 24.5001 79.6996 26.0001C79.6996 27.5001 78.6996 28.6001 77.3996 28.6001ZM101.8 17.5001H97.2996V30.0001H99.1996V25.3001H101.8C103.9 25.3001 105.9 23.8001 105.9 21.4001C105.9 19.0001 103.9 17.5001 101.8 17.5001ZM101.9 23.5001H99.1996V19.2001H101.9C103.3 19.2001 104.1 20.4001 104.1 21.3001C104 22.4001 103.2 23.5001 101.9 23.5001ZM113.4 21.7001C112 21.7001 110.6 22.3001 110.1 23.6001L111.8 24.3001C112.2 23.6001 112.8 23.4001 113.5 23.4001C114.5 23.4001 115.4 24.0001 115.5 25.0001V25.1001C115.2 24.9001 114.4 24.6001 113.6 24.6001C111.8 24.6001 110 25.6001 110 27.4001C110 29.1001 111.5 30.2001 113.1 30.2001C114.4 30.2001 115 29.6001 115.5 29.0001H115.6V30.0001H117.4V25.2001C117.2 23.0001 115.5 21.7001 113.4 21.7001ZM113.2 28.6001C112.6 28.6001 111.7 28.3001 111.7 27.5001C111.7 26.5001 112.8 26.2001 113.7 26.2001C114.5 26.2001 114.9 26.4001 115.4 26.6001C115.2 27.8001 114.2 28.6001 113.2 28.6001ZM123.7 22.0001L121.6 27.4001H121.5L119.3 22.0001H117.3L120.6 29.6001L118.7 33.8001H120.6L125.7 22.0001H123.7ZM106.9 30.0001H108.8V17.5001H106.9V30.0001Z" fill="black"/>
<path d="M10.4 7.5C10.1 7.9 10 8.3 10 9V31C10 31.6 10.2 32.1 10.5 32.4L10.6 32.5L23 20.1V20V19.9L10.4 7.5Z" fill="#5BC9F4"/>
<path d="M27.0004 24.3003L22.9004 20.2003V20.0003V19.9003L27.0004 15.8003L27.1004 15.9003L32.0004 18.7003C33.4004 19.5003 33.4004 20.8003 32.0004 21.6003L27.0004 24.3003Z" fill="url(#paint0_linear_5044_3455)"/>
<path d="M27.1004 24.2L22.9004 20L10.4004 32.5C10.9004 33 11.6004 33 12.5004 32.6L27.1004 24.2Z" fill="url(#paint1_linear_5044_3455)"/>
<path d="M27.1004 15.8001L12.5004 7.50011C11.6004 7.00011 10.9004 7.10011 10.4004 7.60011L22.9004 20.0001L27.1004 15.8001Z" fill="url(#paint2_linear_5044_3455)"/>
<path d="M42.1004 14.3H41.4004V12.3H42.0004C42.5004 11.9 42.8004 11.1 42.8004 10V7H46.8004V12.3H47.5004V14.3H46.8004V13H42.2004V14.3H42.1004ZM43.5004 10C43.5004 10.9 43.3004 11.7 42.9004 12.3H45.9004V7.8H43.4004V10H43.5004Z" fill="black"/>
<path d="M53.3996 12.1999C52.7996 12.7999 52.0996 13.0999 51.1996 13.0999C50.2996 13.0999 49.5996 12.7999 48.9996 12.1999C48.3996 11.5999 48.0996 10.8999 48.0996 9.9999C48.0996 9.0999 48.3996 8.3999 48.9996 7.7999C49.5996 7.1999 50.2996 6.8999 51.1996 6.8999C52.0996 6.8999 52.7996 7.1999 53.3996 7.7999C53.9996 8.3999 54.2996 9.0999 54.2996 9.9999C54.2996 10.8999 53.9996 11.5999 53.3996 12.1999ZM49.5996 11.6999C49.9996 12.0999 50.5996 12.3999 51.1996 12.3999C51.7996 12.3999 52.3996 12.1999 52.7996 11.6999C53.1996 11.2999 53.4996 10.6999 53.4996 9.9999C53.4996 9.2999 53.2996 8.6999 52.7996 8.2999C52.3996 7.8999 51.7996 7.5999 51.1996 7.5999C50.5996 7.5999 49.9996 7.7999 49.5996 8.2999C49.1996 8.6999 48.8996 9.2999 48.8996 9.9999C48.8996 10.6999 49.0996 11.2999 49.5996 11.6999Z" fill="black"/>
<path d="M58.1996 13.0999C57.2996 13.0999 56.5996 12.7999 55.9996 12.1999C55.3996 11.5999 55.0996 10.8999 55.0996 9.9999C55.0996 9.0999 55.3996 8.3999 55.9996 7.7999C56.5996 7.1999 57.2996 6.8999 58.1996 6.8999C59.0996 6.8999 59.7996 7.1999 60.3996 7.8999L59.8996 8.3999C59.4996 7.8999 58.8996 7.5999 58.1996 7.5999C57.4996 7.5999 56.9996 7.7999 56.4996 8.2999C55.9996 8.6999 55.7996 9.2999 55.7996 9.9999C55.7996 10.6999 55.9996 11.2999 56.4996 11.6999C56.8996 12.0999 57.4996 12.3999 58.1996 12.3999C58.8996 12.3999 59.4996 12.0999 59.9996 11.4999L60.4996 11.9999C60.1996 12.2999 59.8996 12.5999 59.4996 12.7999C59.0996 12.9999 58.6996 13.0999 58.1996 13.0999Z" fill="black"/>
<path d="M63.7012 13H62.9012V7.7H61.2012V7H65.3012V7.7H63.6012V13H63.7012Z" fill="black"/>
<path d="M70.6008 7L68.3008 12.1C68.0008 12.8 67.5008 13.2 66.9008 13.2C66.7008 13.2 66.5008 13.2 66.3008 13.1L66.5008 12.4C66.6008 12.5 66.8008 12.5 66.9008 12.5C67.1008 12.5 67.2008 12.5 67.3008 12.4C67.4008 12.3 67.5008 12.2 67.6008 12L67.8008 11.5L65.8008 7.1H66.7008L68.2008 10.5L69.6008 7.1H70.6008V7Z" fill="black"/>
<path d="M71.5 13V7H75.8V13H75V7.7H72.2V13H71.5Z" fill="black"/>
<path d="M77.2012 13V7H78.0012V9.6H81.0012V7H81.8012V13H81.0012V10.3H78.0012V13H77.2012Z" fill="black"/>
<path d="M88.1008 12.1999C87.5008 12.7999 86.8008 13.0999 85.9008 13.0999C85.0008 13.0999 84.3008 12.7999 83.7008 12.1999C83.1008 11.5999 82.8008 10.8999 82.8008 9.9999C82.8008 9.0999 83.1008 8.3999 83.7008 7.7999C84.3008 7.1999 85.0008 6.8999 85.9008 6.8999C86.8008 6.8999 87.5008 7.1999 88.1008 7.7999C88.7008 8.3999 89.0008 9.0999 89.0008 9.9999C88.9008 10.8999 88.6008 11.5999 88.1008 12.1999ZM84.2008 11.6999C84.6008 12.0999 85.2008 12.3999 85.8008 12.3999C86.4008 12.3999 87.0008 12.1999 87.4008 11.6999C87.8008 11.2999 88.1008 10.6999 88.1008 9.9999C88.1008 9.2999 87.9008 8.6999 87.4008 8.2999C87.0008 7.8999 86.4008 7.5999 85.8008 7.5999C85.2008 7.5999 84.6008 7.7999 84.2008 8.2999C83.8008 8.6999 83.5008 9.2999 83.5008 9.9999C83.5008 10.6999 83.8008 11.2999 84.2008 11.6999Z" fill="black"/>
<path d="M92.0996 13V7H94.2996C94.7996 7 95.1996 7.2 95.4996 7.5C95.7996 7.8 95.9996 8.2 95.9996 8.7C95.9996 9 95.8996 9.2 95.7996 9.5C95.6996 9.7 95.4996 9.9 95.1996 10C95.4996 10.1 95.6996 10.3 95.8996 10.5C96.0996 10.7 96.1996 11 96.1996 11.4C96.1996 11.9 95.9996 12.3 95.6996 12.6C95.2996 12.9 94.8996 13.1 94.3996 13.1H92.0996V13ZM92.8996 9.6H94.2996C94.5996 9.6 94.7996 9.5 94.9996 9.3C95.1996 9.1 95.2996 8.9 95.2996 8.7C95.2996 8.5 95.1996 8.3 94.9996 8.1C94.7996 7.9 94.5996 7.8 94.2996 7.8H92.8996V9.6ZM92.8996 12.3H94.4996C94.7996 12.3 94.9996 12.2 95.1996 12C95.3996 11.8 95.4996 11.6 95.4996 11.3C95.4996 11.1 95.3996 10.8 95.1996 10.6C94.9996 10.4 94.7996 10.3 94.4996 10.3H92.9996V12.3H92.8996Z" fill="black"/>
<defs>
<linearGradient id="paint0_linear_5044_3455" x1="31.0892" y1="20.0006" x2="6.91239" y2="20.0006" gradientUnits="userSpaceOnUse">
<stop stop-color="#FEE000"/>
<stop offset="0.1941" stop-color="#FCCF0B"/>
<stop offset="0.5469" stop-color="#FAB318"/>
<stop offset="0.8279" stop-color="#F9A21B"/>
<stop offset="1" stop-color="#F99B1C"/>
</linearGradient>
<linearGradient id="paint1_linear_5044_3455" x1="24.815" y1="22.2931" x2="2.07549" y2="45.0326" gradientUnits="userSpaceOnUse">
<stop stop-color="#EF4547"/>
<stop offset="1" stop-color="#C6186D"/>
</linearGradient>
<linearGradient id="paint2_linear_5044_3455" x1="1.97419" y1="-5.13399" x2="20.5404" y2="13.4322" gradientUnits="userSpaceOnUse">
<stop stop-color="#279E6F"/>
<stop offset="0.3168" stop-color="#4DAB6D"/>
<stop offset="0.7398" stop-color="#6ABA6A"/>
<stop offset="1" stop-color="#74C169"/>
</linearGradient>
</defs>
</svg>
