<svg width="33" height="37" viewBox="0 0 33 37" fill="none" xmlns="http://www.w3.org/2000/svg">
<path d="M6.6001 11.6L8.5001 9.76664C8.5001 7.93331 9.30081 4.12313 10.7261 2.74786C12.1514 1.37259 14.0845 0.599976 16.1001 0.599977C18.1157 0.599977 20.0488 1.37259 21.4741 2.74786C22.8994 4.12313 23.7001 7.93331 23.7001 9.76664L25.6001 11.6" stroke="#121212" stroke-width="1.2" stroke-linecap="round" stroke-linejoin="round"/>
<path d="M0.600098 10.1C0.600098 9.82383 0.823955 9.59998 1.1001 9.59998H31.1001C31.3762 9.59998 31.6001 9.82383 31.6001 10.1V32.1C31.6001 34.033 30.0331 35.6 28.1001 35.6H4.1001C2.1671 35.6 0.600098 34.033 0.600098 32.1V10.1Z" stroke="#121212" stroke-width="1.2"/>
</svg>
