<svg width="22" height="18" viewBox="0 0 22 18" fill="none" xmlns="http://www.w3.org/2000/svg">
<mask id="mask0_3041_5198" style="mask-type:alpha" maskUnits="userSpaceOnUse" x="0" y="0" width="22" height="18">
<rect width="22" height="18" fill="#D9D9D9"/>
</mask>
<g mask="url(#mask0_3041_5198)">
</g>
<g clip-path="url(#clip0_3041_5198)">
<path d="M14.6666 3.83338C14.6666 4.80584 14.2803 5.73847 13.5927 6.42611C12.905 7.11374 11.9724 7.50005 10.9999 7.50005C10.0275 7.50005 9.09485 7.11374 8.40721 6.42611C7.71958 5.73847 7.33327 4.80584 7.33327 3.83338M2.84436 0.9198H19.1555C19.187 0.983676 19.2499 1.18915 19.2499 1.50005V15.3333C19.2499 15.8196 19.0568 16.2859 18.713 16.6297C18.3692 16.9735 17.9028 17.1667 17.4166 17.1667H4.58327C4.09704 17.1667 3.63073 16.9735 3.28691 16.6297C2.94309 16.2859 2.74994 15.8196 2.74994 15.3333V1.50005C2.74994 1.18915 2.81288 0.983676 2.84436 0.9198Z" stroke="#1C1C1C" stroke-linecap="round" stroke-linejoin="round"/>
</g>
<defs>
<clipPath id="clip0_3041_5198">
<rect width="18" height="18" fill="white" transform="translate(2)"/>
</clipPath>
</defs>
</svg>
