<svg width="22" height="18" viewBox="0 0 22 18" fill="none" xmlns="http://www.w3.org/2000/svg">
<mask id="mask0_3041_5198" style="mask-type:alpha" maskUnits="userSpaceOnUse" x="0" y="0" width="22" height="18">
<rect width="22" height="18" fill="#D9D9D9"/>
</mask>
<g mask="url(#mask0_3041_5198)">
</g>
<g clip-path="url(#clip0_3041_5198)">
<path d="M13.4746 17.2895V12.9474C13.4746 12.7171 13.3877 12.4962 13.233 12.3333C13.0783 12.1705 12.8684 12.079 12.6496 12.079H9.34961C9.1308 12.079 8.92096 12.1705 8.76624 12.3333C8.61153 12.4962 8.52461 12.7171 8.52461 12.9474V17.2895M15.7632 8.00607C15.5912 7.83276 15.3623 7.73603 15.1242 7.73603C14.8861 7.73603 14.6572 7.83276 14.4852 8.00607C14.1016 8.39123 13.5918 8.60611 13.0617 8.60611C12.5316 8.60611 12.0218 8.39123 11.6382 8.00607C11.4662 7.83302 11.2375 7.73644 10.9996 7.73644C10.7617 7.73644 10.533 7.83302 10.3611 8.00607C9.9774 8.39148 9.46744 8.60652 8.93711 8.60652C8.40677 8.60652 7.89682 8.39148 7.51316 8.00607C7.34117 7.83276 7.11228 7.73603 6.87419 7.73603C6.63611 7.73603 6.40721 7.83276 6.23523 8.00607C5.86468 8.37829 5.37581 8.59205 4.86377 8.60576C4.35174 8.61946 3.85318 8.43213 3.46513 8.08021C3.07709 7.7283 2.82732 7.23699 2.76444 6.70191C2.70157 6.16683 2.83009 5.62627 3.12498 5.18544L5.50841 1.55196C5.65963 1.31707 5.86323 1.12475 6.1014 0.991828C6.33956 0.858909 6.60504 0.789438 6.87461 0.78949H15.1246C15.3934 0.789381 15.6581 0.858391 15.8958 0.990519C16.1335 1.12265 16.3369 1.31389 16.4883 1.54762L18.8767 5.18804C19.1717 5.62922 19.3 6.1702 19.2368 6.70555C19.1735 7.24091 18.9231 7.7323 18.5345 8.08396C18.1458 8.43562 17.6467 8.62237 17.1344 8.60781C16.622 8.59325 16.1332 8.37842 15.7632 8.0052M4.39961 8.56186V15.5526C4.39961 16.0133 4.57345 16.4551 4.88288 16.7808C5.19232 17.1065 5.612 17.2895 6.04961 17.2895H15.9496C16.3872 17.2895 16.8069 17.1065 17.1163 16.7808C17.4258 16.4551 17.5996 16.0133 17.5996 15.5526V8.56186" stroke="#1C1C1C" stroke-linecap="round" stroke-linejoin="round"/>
</g>
<defs>
<clipPath id="clip0_3041_5198">
<rect width="18" height="18" fill="white" transform="translate(2)"/>
</clipPath>
</defs>
</svg>
