<svg width="37" height="37" viewBox="0 0 37 37" fill="none" xmlns="http://www.w3.org/2000/svg">
<g clip-path="url(#clip0_592_1437)">
<path d="M25.6843 11.3158V20.296C25.6843 21.7251 26.252 23.0956 27.2625 24.106C28.2729 25.1165 29.6434 25.6842 31.0725 25.6842C32.5015 25.6842 33.872 25.1165 34.8825 24.106C35.8929 23.0956 36.4606 21.7251 36.4606 20.296V18.5C36.4606 14.454 35.0945 10.5266 32.5837 7.35397C30.0728 4.18137 26.5643 1.94948 22.6266 1.01991C18.6889 0.0903354 14.5526 0.517544 10.888 2.23232C7.2234 3.94709 4.24512 6.84896 2.43572 10.4678C0.626307 14.0866 0.091774 18.2103 0.91872 22.1709C1.74567 26.1314 3.88564 29.6968 6.99194 32.2892C10.0982 34.8816 13.9889 36.3493 18.0334 36.4544C22.078 36.5596 26.0396 35.296 29.2764 32.8684M25.6843 18.5C25.6843 22.4677 22.4678 25.6842 18.5001 25.6842C14.5324 25.6842 11.3159 22.4677 11.3159 18.5C11.3159 14.5322 14.5324 11.3158 18.5001 11.3158C22.4678 11.3158 25.6843 14.5322 25.6843 18.5Z" stroke="#121212" stroke-linecap="round" stroke-linejoin="round"/>
</g>
<defs>
<clipPath id="clip0_592_1437">
<rect width="37" height="37" fill="white"/>
</clipPath>
</defs>
</svg>
