<svg width="51" height="36" viewBox="0 0 51 36" fill="none" xmlns="http://www.w3.org/2000/svg">
<g clip-path="url(#clip0_592_1432)">
<path d="M33 10.5L18 25.5M0.5 10.5C2.48912 10.5 4.39678 11.2902 5.8033 12.6967C7.20982 14.1032 8 16.0109 8 18C8 19.9891 7.20982 21.8968 5.8033 23.3033C4.39678 24.7098 2.48912 25.5 0.5 25.5V30.5C0.5 31.8261 1.02678 33.0979 1.96447 34.0355C2.90215 34.9732 4.17392 35.5 5.5 35.5H45.5C46.8261 35.5 48.0979 34.9732 49.0355 34.0355C49.9732 33.0979 50.5 31.8261 50.5 30.5V25.5C48.5109 25.5 46.6032 24.7098 45.1967 23.3033C43.7902 21.8968 43 19.9891 43 18C43 16.0109 43.7902 14.1032 45.1967 12.6967C46.6032 11.2902 48.5109 10.5 50.5 10.5V5.5C50.5 4.17392 49.9732 2.90215 49.0355 1.96447C48.0979 1.02678 46.8261 0.5 45.5 0.5H5.5C4.17392 0.5 2.90215 1.02678 1.96447 1.96447C1.02678 2.90215 0.5 4.17392 0.5 5.5V10.5Z" stroke="#121212" stroke-linecap="round" stroke-linejoin="round"/>
<path d="M18 10.5H18.025M33 25.5H33.025" stroke="#121212" stroke-width="2" stroke-linecap="round" stroke-linejoin="round"/>
</g>
<defs>
<clipPath id="clip0_592_1432">
<rect width="51" height="36" fill="white"/>
</clipPath>
</defs>
</svg>
