<svg width="20" height="20" viewBox="0 0 20 20" fill="none" xmlns="http://www.w3.org/2000/svg">
<circle cx="10" cy="10" r="9.25" stroke="#1C1C1C" stroke-width="1.5"/>
<path d="M9.59881 6C9.97778 6 10.3641 6.00433 10.7576 6.01298C11.1582 6.01298 11.5479 6.02596 11.927 6.05195C12.3132 6.06925 12.6709 6.09956 13 6.14285L12.9141 7.57143H10.2317C10.0387 7.57143 9.89202 7.6277 9.79182 7.74025C9.69179 7.85281 9.64161 8.01731 9.64161 8.23376V15H8V7.83116C8 7.27705 8.14669 6.8355 8.4399 6.50649C8.73328 6.16882 9.11947 6 9.59881 6ZM8.19318 9.79221H12.5171V11.1948H8.19318V9.79221Z" fill="#1C1C1C"/>
</svg>
