<svg width="22" height="19" viewBox="0 0 22 19" fill="none" xmlns="http://www.w3.org/2000/svg">
<mask id="mask0_3042_5221" style="mask-type:alpha" maskUnits="userSpaceOnUse" x="0" y="0" width="22" height="19">
<rect width="22" height="19" fill="#D9D9D9"/>
</mask>
<g mask="url(#mask0_3042_5221)">
</g>
<g clip-path="url(#clip0_3042_5221)">
<path d="M17.2218 7.95428C17.2218 11.8125 12.9137 15.8307 11.467 17.0717C11.3322 17.1724 11.1682 17.2268 10.9996 17.2268C10.8309 17.2268 10.6669 17.1724 10.5321 17.0717C9.08546 15.8307 4.77734 11.8125 4.77734 7.95428C4.77734 6.31476 5.4329 4.74239 6.59979 3.58307C7.76668 2.42376 9.34933 1.77246 10.9996 1.77246C12.6498 1.77246 14.2324 2.42376 15.3993 3.58307C16.5662 4.74239 17.2218 6.31476 17.2218 7.95428Z" stroke="#C7C3BC" stroke-linecap="round" stroke-linejoin="round"/>
<path d="M10.9996 10.2725C12.2882 10.2725 13.3329 9.23458 13.3329 7.95428C13.3329 6.67398 12.2882 5.6361 10.9996 5.6361C9.7109 5.6361 8.66623 6.67398 8.66623 7.95428C8.66623 9.23458 9.7109 10.2725 10.9996 10.2725Z" stroke="#C7C3BC" stroke-linecap="round" stroke-linejoin="round"/>
</g>
<defs>
<clipPath id="clip0_3042_5221">
<rect width="14" height="17" fill="white" transform="translate(4 1)"/>
</clipPath>
</defs>
</svg>
