<svg width="22" height="18" viewBox="0 0 22 18" fill="none" xmlns="http://www.w3.org/2000/svg">
<mask id="mask0_3041_5198" style="mask-type:alpha" maskUnits="userSpaceOnUse" x="0" y="0" width="22" height="18">
<rect width="22" height="18" fill="#D9D9D9"/>
</mask>
<g mask="url(#mask0_3041_5198)">
</g>
<g clip-path="url(#clip0_3041_5198)">
<path d="M5 9H5.01M17 9H17.01M3 3H19C20.1046 3 21 3.89543 21 5V13C21 14.1046 20.1046 15 19 15H3C1.89543 15 1 14.1046 1 13V5C1 3.89543 1.89543 3 3 3ZM13 9C13 10.1046 12.1046 11 11 11C9.89543 11 9 10.1046 9 9C9 7.89543 9.89543 7 11 7C12.1046 7 13 7.89543 13 9Z" stroke="#1C1C1C" stroke-linecap="round" stroke-linejoin="round"/>
</g>
<defs>
<clipPath id="clip0_3041_5198">
<rect width="22" height="14" fill="white" transform="translate(0 2)"/>
</clipPath>
</defs>
</svg>
