<svg width="12" height="12" viewBox="0 0 12 12" fill="none" xmlns="http://www.w3.org/2000/svg">
<g clip-path="url(#clip0_914_6554)">
<path d="M11.4 6C11.4 7.06802 11.0833 8.11205 10.4899 9.00008C9.89655 9.8881 9.05319 10.5802 8.06647 10.9889C7.07975 11.3977 5.99399 11.5046 4.94649 11.2962C3.89899 11.0879 2.9368 10.5736 2.1816 9.81838C1.4264 9.06317 0.912098 8.10098 0.703737 7.05349C0.495377 6.00599 0.602315 4.92023 1.01103 3.93351C1.41974 2.94679 2.11187 2.10342 2.9999 1.51006C3.88792 0.916705 4.93196 0.6 5.99998 0.6C7.51198 0.6 8.95798 1.2 10.044 2.244L11.4 3.6M11.4 3.6V0.6M11.4 3.6H8.39998" stroke="black" stroke-linecap="round" stroke-linejoin="round"/>
</g>
<defs>
<clipPath id="clip0_914_6554">
<rect width="12" height="12" fill="white"/>
</clipPath>
</defs>
</svg>
