<svg width="51" height="51" viewBox="0 0 51 51" fill="none" xmlns="http://www.w3.org/2000/svg">
<path d="M46.7506 25.5C46.7506 25.7013 46.6934 25.8984 46.5858 26.0684C46.4781 26.2385 46.3243 26.3744 46.1424 26.4605L7.89236 44.523C7.70132 44.6156 7.48683 44.6486 7.27677 44.6177C7.06672 44.5868 6.87081 44.4935 6.71452 44.3498C6.55822 44.2061 6.44876 44.0187 6.40036 43.812C6.35195 43.6053 6.36685 43.3888 6.44311 43.1906L12.4824 26.9833C12.8387 26.0265 12.8387 24.9735 12.4824 24.0168L6.44099 7.80938C6.36434 7.61099 6.34925 7.39411 6.39767 7.18702C6.4461 6.97993 6.5558 6.79224 6.71247 6.64841C6.86914 6.50459 7.06551 6.41131 7.27598 6.38073C7.48645 6.35015 7.70124 6.3837 7.89236 6.477L46.1424 24.5395C46.3243 24.6256 46.4781 24.7615 46.5858 24.9316C46.6934 25.1016 46.7506 25.2987 46.7506 25.5ZM46.7506 25.5H12.7501" stroke="#121212" stroke-width="1.8" stroke-linecap="round" stroke-linejoin="round"/>
</svg>
