<svg width="11" height="10" viewBox="0 0 11 10" fill="none" xmlns="http://www.w3.org/2000/svg">
<path fill-rule="evenodd" clip-rule="evenodd" d="M0.756193 4.30493C3.70898 2.8937 5.67796 1.96333 6.66315 1.51383C9.47606 0.230387 10.0606 0.00744034 10.4415 7.84928e-05C10.5253 -0.00154066 10.7127 0.021239 10.834 0.12926C10.9365 0.220472 10.9647 0.343684 10.9782 0.430162C10.9917 0.516641 11.0085 0.71364 10.9951 0.86757C10.8427 2.6245 10.1831 6.8881 9.84755 8.8559C9.70557 9.68854 9.42599 9.96772 9.15533 9.99504C8.56713 10.0544 8.12047 9.56862 7.55077 9.15896C6.65929 8.51792 6.15567 8.11887 5.29033 7.49333C4.29029 6.77042 4.93858 6.37309 5.5085 5.72375C5.65765 5.55381 8.24929 2.96792 8.29945 2.73334C8.30573 2.704 8.31155 2.59464 8.25233 2.5369C8.1931 2.47915 8.10569 2.4989 8.04261 2.5146C7.9532 2.53686 6.52905 3.56945 3.77017 5.61236C3.36594 5.91686 2.99979 6.06522 2.67173 6.05745C2.31008 6.04887 1.6144 5.83313 1.09724 5.64872C0.462913 5.42253 -0.0412351 5.30294 0.00266485 4.91881C0.0255307 4.71872 0.276707 4.5141 0.756193 4.30493Z" fill="#1C1C1C"/>
</svg>
