<svg width="21" height="21" viewBox="0 0 21 21" fill="none" xmlns="http://www.w3.org/2000/svg">
<mask id="mask0_3044_5249" style="mask-type:alpha" maskUnits="userSpaceOnUse" x="0" y="0" width="21" height="21">
<rect width="21" height="21" fill="#393939"/>
</mask>
<g mask="url(#mask0_3044_5249)">
<path fill-rule="evenodd" clip-rule="evenodd" d="M4.75619 10.3049C7.70898 8.8937 9.67796 7.96333 10.6631 7.51383C13.4761 6.23039 14.0606 6.00744 14.4415 6.00008C14.5253 5.99846 14.7127 6.02124 14.834 6.12926C14.9365 6.22047 14.9647 6.34368 14.9782 6.43016C14.9917 6.51664 15.0085 6.71364 14.9951 6.86757C14.8427 8.6245 14.1831 12.8881 13.8476 14.8559C13.7056 15.6885 13.426 15.9677 13.1553 15.995C12.5671 16.0544 12.1205 15.5686 11.5508 15.159C10.6593 14.5179 10.1557 14.1189 9.29033 13.4933C8.29029 12.7704 8.93858 12.3731 9.5085 11.7237C9.65765 11.5538 12.2493 8.96792 12.2995 8.73334C12.3057 8.704 12.3116 8.59464 12.2523 8.5369C12.1931 8.47915 12.1057 8.4989 12.0426 8.5146C11.9532 8.53686 10.5291 9.56945 7.77017 11.6124C7.36594 11.9169 6.99979 12.0652 6.67173 12.0574C6.31008 12.0489 5.6144 11.8331 5.09724 11.6487C4.46291 11.4225 3.95876 11.3029 4.00266 10.9188C4.02553 10.7187 4.27671 10.5141 4.75619 10.3049Z" fill="#1C1C1C"/>
</g>
</svg>
