<svg width="280" height="28" viewBox="0 0 280 28" fill="none" xmlns="http://www.w3.org/2000/svg">
<g clip-path="url(#clip0_5006_2806)">
<path d="M143.827 0.326961C144.909 0.326961 146.011 0.336861 147.134 0.356669C148.277 0.356669 149.389 0.386382 150.472 0.445851C151.574 0.485465 152.594 0.554837 153.532 0.65392L153.287 3.92357H145.634C145.083 3.92357 144.664 4.05236 144.378 4.30995C144.093 4.56758 143.95 4.94402 143.95 5.43966V20.9257H139.266V4.51802C139.266 3.2498 139.684 2.23921 140.52 1.4862C141.358 0.713343 142.46 0.326961 143.827 0.326961ZM139.816 9.00637H152.155V12.2165H139.816V9.00637ZM165.098 0.416137C165.485 0.416137 165.822 0.525124 166.107 0.743097C166.415 0.961071 166.618 1.24837 166.72 1.60509L172.844 20.9257H168.067L163.751 5.8558C163.669 5.51871 163.587 5.18208 163.505 4.84498C163.424 4.48831 163.353 4.15144 163.292 3.83439H162.465C162.403 4.15144 162.331 4.48831 162.25 4.84498C162.19 5.18208 162.108 5.51871 162.006 5.8558L157.688 20.9257H152.881L159.035 1.60509C159.137 1.24837 159.332 0.961071 159.618 0.743097C159.923 0.525124 160.27 0.416137 160.659 0.416137H165.098ZM168.342 12.0974V15.5159H157.383V12.0974H168.342ZM183.018 0.178312C184.855 0.178312 186.315 0.336864 187.397 0.65392C188.499 0.951169 189.294 1.48619 189.785 2.259C190.275 3.03182 190.52 4.12173 190.52 5.52847C190.52 6.99496 190.223 8.11458 189.632 8.88734C189.06 9.64058 188.111 10.0762 186.784 10.1953V10.3738C188.417 10.5124 189.56 11.0476 190.214 11.9789C190.866 12.8902 191.193 14.1683 191.193 15.8133C191.193 17.2199 190.938 18.3098 190.428 19.083C189.938 19.8557 189.162 20.4007 188.101 20.7178C187.06 21.0149 185.692 21.1637 183.998 21.1637C182.631 21.1637 181.436 21.1534 180.416 21.1339C179.416 21.1339 178.487 21.114 177.63 21.0744C176.772 21.0349 175.895 20.9852 174.996 20.9257L175.457 17.7751C175.946 17.7946 176.884 17.8145 178.272 17.8346C179.681 17.8541 181.314 17.8643 183.172 17.8643C184.028 17.8643 184.703 17.7848 185.192 17.6262C185.682 17.4677 186.018 17.1803 186.202 16.7642C186.407 16.3285 186.509 15.7138 186.509 14.9215C186.509 14.0693 186.407 13.4254 186.202 12.9892C185.998 12.5336 185.641 12.2165 185.13 12.0384C184.641 11.8599 183.957 11.7608 183.079 11.7408H175.425V8.85759H183.018C183.774 8.83806 184.366 8.75855 184.794 8.61999C185.243 8.48143 185.559 8.21361 185.743 7.81747C185.927 7.42086 186.018 6.86616 186.018 6.15292C186.018 5.41967 185.916 4.86498 185.713 4.48831C185.529 4.09198 185.202 3.82448 184.733 3.68574C184.264 3.54704 183.61 3.47767 182.774 3.47767C181.63 3.47767 180.62 3.47767 179.742 3.47767C178.865 3.47767 178.079 3.48762 177.384 3.50743C176.691 3.50743 176.048 3.52724 175.457 3.56685L174.996 0.416137C175.813 0.336861 176.599 0.287299 177.354 0.267492C178.13 0.227877 178.967 0.20807 179.864 0.20807C180.763 0.188216 181.815 0.178312 183.018 0.178312ZM179.589 0.416137V20.9257H174.996V0.416137H179.589ZM202.725 0.11889C204.583 0.11889 206.082 0.307153 207.226 0.683632C208.39 1.0403 209.237 1.66452 209.767 2.55626C210.317 3.42816 210.594 4.64686 210.594 6.21243C210.594 7.16327 210.461 8.00578 210.196 8.73902C209.951 9.45227 209.532 10.027 208.94 10.4626C208.349 10.8988 207.542 11.1763 206.521 11.2949V11.4437C206.889 11.5032 207.266 11.6418 207.654 11.8599C208.063 12.0779 208.44 12.4048 208.787 12.8409C209.135 13.2571 209.389 13.8215 209.553 14.5353L211.389 20.9257H206.461L204.837 14.6835C204.653 14.0098 204.378 13.5444 204.011 13.2868C203.664 13.0292 203.174 12.9004 202.541 12.9004C201.153 12.9004 199.98 12.9004 199.02 12.9004C198.081 12.8805 197.285 12.8604 196.632 12.8409C195.999 12.821 195.428 12.8009 194.918 12.7814L195.01 9.48202H202.633C203.449 9.48202 204.092 9.40253 204.562 9.24397C205.052 9.06589 205.389 8.75855 205.573 8.32288C205.777 7.88675 205.878 7.2823 205.878 6.50953C205.878 5.71678 205.777 5.11233 205.573 4.69638C205.389 4.26043 205.052 3.96318 204.562 3.80467C204.092 3.62631 203.449 3.53713 202.633 3.53713C200.714 3.53713 199.092 3.54704 197.765 3.56685C196.439 3.58671 195.53 3.61641 195.04 3.65603L194.581 0.416137C195.437 0.317053 196.244 0.247684 197 0.20807C197.754 0.168408 198.581 0.148602 199.48 0.148602C200.378 0.128794 201.459 0.11889 202.725 0.11889ZM199.204 0.416137V20.9257H194.581V0.416137H199.204ZM219.088 0.416137V20.9257H214.434V0.416137H219.088ZM231.764 0C233.437 0 234.856 0.178312 236.019 0.53503C237.183 0.871894 238.122 1.44654 238.836 2.259C239.55 3.05163 240.061 4.14154 240.367 5.52847C240.694 6.89592 240.858 8.61023 240.858 10.6709C240.858 12.7316 240.694 14.4557 240.367 15.8426C240.061 17.2101 239.55 18.3 238.836 19.1128C238.122 19.9051 237.183 20.4798 236.019 20.8363C234.856 21.1735 233.437 21.3417 231.764 21.3417C230.09 21.3417 228.671 21.1735 227.508 20.8363C226.344 20.4798 225.406 19.9051 224.691 19.1128C223.977 18.3 223.457 17.2101 223.13 15.8426C222.823 14.4557 222.671 12.7316 222.671 10.6709C222.671 8.61023 222.823 6.89592 223.13 5.52847C223.457 4.14154 223.977 3.05163 224.691 2.259C225.406 1.44654 226.344 0.871894 227.508 0.53503C228.671 0.178312 230.09 0 231.764 0ZM230.233 21.9365C231.601 22.4712 233.03 22.8976 234.52 23.2147C236.01 23.5513 237.612 23.8386 239.325 24.0766L238.101 28C236.265 27.5639 234.601 27.0189 233.111 26.3651C231.621 25.7115 230.294 25.0178 229.13 24.2845L230.233 21.9365ZM231.764 3.59661C230.702 3.59661 229.865 3.80467 229.253 4.22081C228.641 4.6369 228.212 5.36016 227.967 6.39051C227.723 7.40133 227.6 8.82783 227.6 10.6709C227.6 12.4941 227.723 13.9205 227.967 14.9513C228.212 15.9817 228.641 16.7047 229.253 17.1208C229.865 17.537 230.702 17.7453 231.764 17.7453C232.825 17.7453 233.652 17.537 234.243 17.1208C234.856 16.7047 235.285 15.9817 235.529 14.9513C235.795 13.9205 235.927 12.4941 235.927 10.6709C235.927 8.82783 235.795 7.40133 235.529 6.39051C235.285 5.36016 234.856 4.6369 234.243 4.22081C233.652 3.80467 232.825 3.59661 231.764 3.59661ZM261.324 0.416137V12.7517C261.324 14.8323 261.058 16.5067 260.527 17.7751C259.997 19.0234 259.119 19.9348 257.894 20.5095C256.69 21.0642 255.077 21.3417 253.057 21.3417C250.914 21.3417 249.2 21.0642 247.914 20.5095C246.628 19.9348 245.699 19.0234 245.127 17.7751C244.556 16.5067 244.27 14.8323 244.27 12.7517V0.416137H248.955V12.7517C248.955 14.0396 249.066 15.0504 249.291 15.7836C249.536 16.4969 249.944 17.0023 250.516 17.2994C251.088 17.5965 251.853 17.7453 252.812 17.7453C253.771 17.7453 254.527 17.5965 255.077 17.2994C255.649 17.0023 256.047 16.4969 256.272 15.7836C256.517 15.0504 256.64 14.0396 256.64 12.7517V0.416137H261.324ZM269.76 0.326961C270.903 0.326961 272.057 0.336861 273.22 0.356669C274.383 0.356669 275.526 0.376476 276.648 0.416137C277.772 0.455751 278.822 0.525126 279.803 0.62421L279.588 3.92357H271.475C270.964 3.92357 270.576 4.05236 270.312 4.30995C270.066 4.56758 269.944 4.94402 269.944 5.43966V15.9022C269.944 16.3978 270.066 16.7744 270.312 17.032C270.576 17.2896 270.964 17.4185 271.475 17.4185H279.588L279.803 20.7178C278.822 20.7969 277.772 20.8661 276.648 20.9257C275.526 20.9651 274.383 20.9852 273.22 20.9852C272.057 21.0051 270.903 21.0149 269.76 21.0149C268.413 21.0149 267.321 20.6383 266.484 19.8855C265.667 19.1128 265.26 18.1117 265.26 16.8833V4.4586C265.26 3.21018 265.667 2.20944 266.484 1.45644C267.321 0.703439 268.413 0.326961 269.76 0.326961ZM265.811 8.64975H278.456V11.8599H265.811V8.64975Z" fill="#121212"/>
<path d="M4.56228 0.326961C5.64369 0.326961 6.7462 0.336865 7.8688 0.356672C9.01201 0.356672 10.1241 0.386383 11.206 0.445851C12.308 0.485465 13.3286 0.554836 14.2677 0.653919L14.0226 3.92357H6.36832C5.81755 3.92357 5.39896 4.05236 5.11305 4.30995C4.82761 4.56758 4.68441 4.94406 4.68441 5.43948V20.9257H0V4.51802C0 3.2498 0.418584 2.23921 1.25528 1.48619C2.09244 0.713342 3.19445 0.326961 4.56228 0.326961ZM0.551248 9.00637H12.8899V12.2165H0.551248V9.00637ZM25.8325 0.41614C26.2199 0.41614 26.5571 0.525127 26.8425 0.7431C27.1491 0.961073 27.3531 1.24837 27.4551 1.60509L33.5786 20.9257H28.8023L24.4852 5.85562C24.4034 5.51875 24.3219 5.18189 24.2401 4.84498C24.1586 4.48831 24.0872 4.15144 24.0259 3.83439H23.1993C23.138 4.15144 23.0667 4.48831 22.9848 4.84498C22.9239 5.18189 22.842 5.51875 22.7401 5.85562L18.4229 20.9257H13.6159L19.7702 1.60509C19.8722 1.24837 20.0661 0.961073 20.352 0.7431C20.6581 0.525127 21.0048 0.41614 21.3928 0.41614H25.8325ZM29.0777 12.0976V15.516H18.117V12.0976H29.0777ZM42.7124 0.0297109C43.7531 0.0297109 44.8857 0.089132 46.1108 0.208069C47.3354 0.307152 48.5294 0.525126 49.6927 0.861991L49.3867 3.86409C48.4887 3.8443 47.4374 3.82449 46.2329 3.80468C45.0289 3.78482 43.845 3.77493 42.6817 3.77493C42.1098 3.77493 41.6199 3.79472 41.2118 3.83439C40.8239 3.8542 40.5078 3.93348 40.2626 4.07217C40.0179 4.19106 39.8445 4.37932 39.7425 4.63691C39.6399 4.89454 39.5892 5.25121 39.5892 5.70702C39.5892 6.40056 39.7525 6.90587 40.0792 7.22293C40.4259 7.53998 41.0079 7.82733 41.8244 8.08492L45.8962 9.36305C47.5903 9.91788 48.7641 10.6709 49.4174 11.6221C50.0706 12.5732 50.3972 13.8216 50.3972 15.3673C50.3972 16.5365 50.254 17.5075 49.9686 18.2803C49.6827 19.0531 49.2334 19.6574 48.6213 20.0935C48.0088 20.5294 47.2027 20.8365 46.2023 21.0148C45.2022 21.213 43.9777 21.3121 42.5284 21.3121C41.8344 21.3121 40.8445 21.2626 39.5586 21.1635C38.2726 21.0842 36.8028 20.8663 35.1495 20.5095L35.4561 17.2993C36.6601 17.3192 37.7013 17.3489 38.5787 17.3886C39.4766 17.4083 40.2425 17.4281 40.8752 17.448C41.5078 17.448 42.0591 17.448 42.5284 17.448C43.345 17.448 43.9777 17.3985 44.4269 17.2993C44.8963 17.2003 45.2229 17.0021 45.4063 16.7049C45.5902 16.4076 45.6822 15.9816 45.6822 15.4267C45.6822 14.9512 45.6103 14.5747 45.4676 14.2973C45.345 14 45.131 13.7722 44.8249 13.6136C44.539 13.4352 44.141 13.2767 43.6305 13.1381L39.344 11.7112C37.732 11.1366 36.5888 10.3836 35.9153 9.45223C35.2415 8.52087 34.9048 7.2923 34.9048 5.76644C34.9048 4.57749 35.0476 3.61641 35.3335 2.88322C35.6396 2.13022 36.0989 1.54562 36.7114 1.12948C37.3441 0.713342 38.1501 0.426042 39.1299 0.267491C40.1299 0.108986 41.3239 0.0297109 42.7124 0.0297109ZM58.3862 0.41614V20.9257H53.7018V0.41614H58.3862ZM66.2238 8.29298V11.7112H58.141V8.29298H66.2238ZM70.5717 0.41614V20.9257H65.8872V0.41614H70.5717ZM79.5242 0.41614V20.9257H74.8704V0.41614H79.5242ZM92.1995 0C93.8734 0 95.292 0.178312 96.4553 0.53503C97.6187 0.871893 98.5473 1.44654 99.2413 2.25901C99.9558 3.05163 100.476 4.14154 100.803 5.52866C101.13 6.89597 101.292 8.61005 101.292 10.6709C101.292 12.7317 101.13 14.4557 100.803 15.8429C100.476 17.2102 99.9558 18.3001 99.2413 19.1126C98.5473 19.9052 97.6187 20.4798 96.4553 20.8365C95.292 21.1734 93.8734 21.3418 92.1995 21.3418C90.5257 21.3418 89.1072 21.1734 87.9438 20.8365C86.7805 20.4798 85.8413 19.9052 85.1267 19.1126C84.4127 18.3001 83.8921 17.2102 83.5655 15.8429C83.2388 14.4557 83.0755 12.7317 83.0755 10.6709C83.0755 8.61005 83.2388 6.89597 83.5655 5.52866C83.8921 4.14154 84.4127 3.05163 85.1267 2.25901C85.8413 1.44654 86.7805 0.871893 87.9438 0.53503C89.1072 0.178312 90.5257 0 92.1995 0ZM92.1995 3.59661C91.1176 3.59661 90.2704 3.80468 89.6584 4.22081C89.0664 4.63691 88.6378 5.3602 88.3724 6.39065C88.1272 7.40129 88.0051 8.82802 88.0051 10.6709C88.0051 12.494 88.1272 13.9207 88.3724 14.9512C88.6378 15.9816 89.0664 16.7049 89.6584 17.121C90.2704 17.5371 91.1176 17.7452 92.1995 17.7452C93.2609 17.7452 94.0876 17.5371 94.6794 17.121C95.292 16.7049 95.7207 15.9816 95.9654 14.9512C96.2307 13.9207 96.3634 12.494 96.3634 10.6709C96.3634 8.82802 96.2307 7.40129 95.9654 6.39065C95.7207 5.3602 95.292 4.63691 94.6794 4.22081C94.0876 3.80468 93.2609 3.59661 92.1995 3.59661ZM122.74 0.41614V19.2908C122.74 20.3807 122.179 20.9257 121.055 20.9257H118.484C117.973 20.9257 117.585 20.8167 117.32 20.5987C117.055 20.3609 116.81 20.0142 116.585 19.5583L110.737 8.7983C110.492 8.34251 110.248 7.83724 110.003 7.28235C109.778 6.72751 109.584 6.19248 109.421 5.67726H109.084C109.146 6.21229 109.196 6.75722 109.237 7.31211C109.278 7.84713 109.298 8.38216 109.298 8.9172V20.9257H104.859V2.05094C104.859 0.961072 105.43 0.41614 106.574 0.41614H109.115C109.604 0.41614 109.972 0.535031 110.217 0.772812C110.482 0.990785 110.737 1.32764 110.982 1.7834L116.647 12.2165C116.891 12.6723 117.146 13.1776 117.412 13.7325C117.677 14.2874 117.932 14.8619 118.177 15.4565H118.545C118.484 14.8619 118.432 14.2874 118.392 13.7325C118.371 13.1578 118.361 12.5931 118.361 12.0382L118.33 0.41614H122.74Z" fill="#121212"/>
</g>
<defs>
<clipPath id="clip0_5006_2806">
<rect width="280" height="28" fill="white"/>
</clipPath>
</defs>
</svg>
