<svg width="68" height="20" viewBox="0 0 68 20" fill="none" xmlns="http://www.w3.org/2000/svg">
<rect width="68" height="20" rx="4" fill="black"/>
<g clip-path="url(#clip0_505_10290)">
<path d="M15.9392 6H14.6044V12.7689H15.9392V6Z" fill="white"/>
<path d="M13.0711 6.37876H11.7363V13.1475H13.0711V6.37876Z" fill="white"/>
<path d="M10.203 6.80162H8.86814V13.5716H10.203V6.80162Z" fill="white"/>
<path d="M7.33482 7.22917H6L6.00001 14H7.33482L7.33482 7.22917Z" fill="white"/>
<path d="M51.1935 9.60656L49.0442 7.21695H47.7878V12.7497H49.0996V9.21971L51.0618 11.3111H51.3043L53.2327 9.21971V12.7497H54.5446V7.21695H53.2881L51.1935 9.60656Z" fill="white"/>
<path d="M60.7945 7.21695L57.543 10.813V7.21695H56.2311V12.7497H57.433L60.6846 9.15362V12.7497H61.9964V7.21695H60.7945Z" fill="white"/>
<path d="M40.7217 9.24147C40.7217 10.1224 41.2034 10.8163 41.9428 11.1072L40.5563 12.7497H42.162L43.4233 11.2555H44.7882V12.7497H46.1V7.21695H42.7602C41.5149 7.21695 40.7217 8.06883 40.7217 9.24147ZM44.789 8.43553V10.0716H43.0034C42.4077 10.0716 42.0882 9.73954 42.0882 9.25275C42.0882 8.76596 42.4189 8.43392 43.0034 8.43392L44.789 8.43553Z" fill="white"/>
<path d="M34.6255 8.3235C34.5453 10.2263 34.1438 11.4546 33.3578 11.4546H33.1611V12.7828L33.3707 12.794C34.9467 12.8819 35.8178 11.4989 35.9607 8.47824H38.0337V12.7497H39.3431V7.21695H34.6697L34.6255 8.3235Z" fill="white"/>
<path d="M29.6872 7.13965C27.9129 7.13965 26.6364 8.3679 26.6364 9.983C26.6364 11.6537 28.0253 12.8384 29.6872 12.8384C31.4182 12.8384 32.763 11.5876 32.763 9.983C32.763 8.37838 31.4182 7.13965 29.6872 7.13965ZM29.6872 11.5103C28.6845 11.5103 28.0012 10.8574 28.0012 9.983C28.0012 9.0868 28.6853 8.45172 29.6872 8.45172C30.6892 8.45172 31.3957 9.11581 31.3957 9.983C31.3957 10.8502 30.6796 11.5103 29.6872 11.5103Z" fill="white"/>
<path d="M25.2451 7.22739H20.615L20.5709 8.33394C20.505 9.92809 20.0891 11.4441 19.3031 11.4658L18.9395 11.4771V14.0003L20.2626 13.9976V12.7505H24.8589V13.9976H26.1932V11.4658H25.2451V7.22739ZM23.9332 11.4658H21.1337C21.6073 10.7469 21.861 9.70645 21.9052 8.48949H23.9332V11.4658Z" fill="white"/>
</g>
<defs>
<clipPath id="clip0_505_10290">
<rect width="56" height="8" fill="white" transform="translate(6 6)"/>
</clipPath>
</defs>
</svg>
