<svg width="195" height="20" viewBox="0 0 195 20" fill="none" xmlns="http://www.w3.org/2000/svg">
<g clip-path="url(#clip0_434_664)">
<path d="M100.165 0.233543C100.918 0.233543 101.686 0.240615 102.468 0.254763C103.264 0.254763 104.038 0.275988 104.792 0.318465C105.56 0.346761 106.27 0.396312 106.924 0.467086L106.753 2.80255H101.423C101.04 2.80255 100.748 2.89454 100.548 3.07853C100.35 3.26256 100.251 3.53144 100.251 3.88547V14.9469H96.9883V3.22716C96.9883 2.32128 97.2795 1.59943 97.862 1.06157C98.4453 0.509531 99.2128 0.233543 100.165 0.233543ZM97.3716 6.43312H105.965V8.72608H97.3716V6.43312ZM114.978 0.297241C115.248 0.297241 115.483 0.375088 115.682 0.530783C115.896 0.686479 116.037 0.891692 116.108 1.14649L120.373 14.9469H117.047L114.04 4.18272C113.983 3.94193 113.926 3.70148 113.87 3.4607C113.813 3.20593 113.763 2.96532 113.721 2.73885H113.145C113.102 2.96532 113.052 3.20593 112.995 3.4607C112.953 3.70148 112.896 3.94193 112.825 4.18272L109.818 14.9469H106.47L110.756 1.14649C110.827 0.891692 110.963 0.686479 111.162 0.530783C111.375 0.375088 111.617 0.297241 111.887 0.297241H114.978ZM117.238 8.641V11.0827H109.606V8.641H117.238ZM127.458 0.127366C128.738 0.127366 129.755 0.240617 130.508 0.467086C131.276 0.679407 131.83 1.06157 132.171 1.61357C132.513 2.16558 132.683 2.94409 132.683 3.94891C132.683 4.9964 132.477 5.79612 132.065 6.3481C131.666 6.88612 131.005 7.19732 130.081 7.28234V7.40988C131.219 7.50884 132.015 7.89111 132.47 8.55633C132.924 9.20725 133.152 10.1203 133.152 11.2952C133.152 12.2999 132.975 13.0784 132.619 13.6307C132.278 14.1827 131.738 14.5719 130.999 14.7984C130.274 15.0107 129.321 15.1169 128.141 15.1169C127.189 15.1169 126.357 15.1096 125.647 15.0957C124.95 15.0957 124.303 15.0814 123.707 15.0532C123.109 15.0249 122.498 14.9894 121.872 14.9469L122.193 12.6965C122.533 12.7104 123.187 12.7247 124.154 12.739C125.134 12.7529 126.272 12.7602 127.566 12.7602C128.162 12.7602 128.632 12.7034 128.972 12.5902C129.314 12.4769 129.548 12.2717 129.676 11.9744C129.819 11.6632 129.89 11.2242 129.89 10.6582C129.89 10.0495 129.819 9.58958 129.676 9.278C129.534 8.95258 129.285 8.72608 128.93 8.59883C128.589 8.47133 128.113 8.40058 127.501 8.38625H122.171V6.32685H127.458C127.985 6.3129 128.398 6.25611 128.695 6.15713C129.008 6.05817 129.229 5.86687 129.357 5.58391C129.485 5.30062 129.548 4.9044 129.548 4.39494C129.548 3.87119 129.477 3.47498 129.336 3.20593C129.208 2.92284 128.98 2.73177 128.653 2.63267C128.326 2.5336 127.871 2.48405 127.289 2.48405C126.492 2.48405 125.789 2.48405 125.177 2.48405C124.566 2.48405 124.019 2.49116 123.535 2.50531C123.052 2.50531 122.604 2.51946 122.193 2.54775L121.872 0.297241C122.441 0.240615 122.989 0.205213 123.514 0.191066C124.055 0.162769 124.637 0.148622 125.262 0.148622C125.888 0.13444 126.621 0.127366 127.458 0.127366ZM125.071 0.297241V14.9469H121.872V0.297241H125.071ZM141.183 0.0849217C142.477 0.0849217 143.521 0.219395 144.318 0.488308C145.128 0.743073 145.718 1.18894 146.087 1.8259C146.471 2.44868 146.663 3.31918 146.663 4.43745C146.663 5.11663 146.571 5.71842 146.386 6.24216C146.215 6.75162 145.924 7.16212 145.511 7.47331C145.1 7.78483 144.538 7.9831 143.827 8.06779V8.17407C144.083 8.21657 144.346 8.31555 144.616 8.47133C144.901 8.62708 145.163 8.86058 145.405 9.17208C145.647 9.46933 145.824 9.8725 145.938 10.3823L147.217 14.9469H143.785L142.654 10.4883C142.526 10.007 142.335 9.67458 142.078 9.49058C141.837 9.30658 141.496 9.21458 141.055 9.21458C140.088 9.21458 139.271 9.21458 138.603 9.21458C137.949 9.20033 137.394 9.186 136.94 9.17208C136.499 9.15783 136.101 9.1435 135.746 9.12958L135.81 6.77287H141.119C141.688 6.77287 142.135 6.71609 142.463 6.60283C142.804 6.47563 143.038 6.25611 143.166 5.94492C143.309 5.63339 143.379 5.20164 143.379 4.64967C143.379 4.08342 143.309 3.65167 143.166 3.35456C143.038 3.04317 142.804 2.83084 142.463 2.71762C142.135 2.59022 141.688 2.52653 141.119 2.52653C139.783 2.52653 138.653 2.5336 137.729 2.54775C136.805 2.56193 136.172 2.58315 135.831 2.61145L135.511 0.297241C136.108 0.226467 136.67 0.176917 137.196 0.148622C137.722 0.120292 138.297 0.106144 138.923 0.106144C139.548 0.0919958 140.302 0.0849217 141.183 0.0849217ZM138.731 0.297241V14.9469H135.511V0.297241H138.731ZM152.579 0.297241V14.9469H149.338V0.297241H152.579ZM161.407 0C162.572 0 163.56 0.127366 164.37 0.382164C165.181 0.622782 165.835 1.03324 166.332 1.61357C166.829 2.17973 167.185 2.95824 167.398 3.94891C167.626 4.92566 167.74 6.15017 167.74 7.62209C167.74 9.094 167.626 10.3255 167.398 11.3162C167.185 12.2929 166.829 13.0714 166.332 13.652C165.835 14.2179 165.181 14.6284 164.37 14.8831C163.56 15.1239 162.572 15.2441 161.407 15.2441C160.241 15.2441 159.253 15.1239 158.443 14.8831C157.632 14.6284 156.979 14.2179 156.481 13.652C155.984 13.0714 155.621 12.2929 155.394 11.3162C155.18 10.3255 155.074 9.094 155.074 7.62209C155.074 6.15017 155.18 4.92566 155.394 3.94891C155.621 2.95824 155.984 2.17973 156.481 1.61357C156.979 1.03324 157.632 0.622782 158.443 0.382164C159.253 0.127366 160.241 0 161.407 0ZM160.341 15.6689C161.293 16.0508 162.288 16.3554 163.326 16.5819C164.364 16.8223 165.479 17.0276 166.673 17.1976L165.82 20C164.541 19.6885 163.383 19.2992 162.345 18.8322C161.307 18.3653 160.383 17.8698 159.572 17.3461L160.341 15.6689ZM161.407 2.56901C160.667 2.56901 160.085 2.71762 159.658 3.01487C159.232 3.31207 158.933 3.82868 158.762 4.56465C158.592 5.28667 158.507 6.30559 158.507 7.62209C158.507 8.92433 158.592 9.94325 158.762 10.6795C158.933 11.4155 159.232 11.9319 159.658 12.2292C160.085 12.5264 160.667 12.6753 161.407 12.6753C162.146 12.6753 162.722 12.5264 163.133 12.2292C163.56 11.9319 163.859 11.4155 164.029 10.6795C164.214 9.94325 164.306 8.92433 164.306 7.62209C164.306 6.30559 164.214 5.28667 164.029 4.56465C163.859 3.82868 163.56 3.31207 163.133 3.01487C162.722 2.71762 162.146 2.56901 161.407 2.56901ZM181.993 0.297241V9.10833C181.993 10.5945 181.808 11.7905 181.438 12.6965C181.069 13.5882 180.457 14.2392 179.605 14.6497C178.766 15.0458 177.643 15.2441 176.236 15.2441C174.743 15.2441 173.55 15.0458 172.654 14.6497C171.759 14.2392 171.112 13.5882 170.713 12.6965C170.316 11.7905 170.117 10.5945 170.117 9.10833V0.297241H173.379V9.10833C173.379 10.0282 173.457 10.7502 173.613 11.274C173.784 11.7835 174.068 12.1445 174.466 12.3567C174.864 12.5689 175.398 12.6753 176.065 12.6753C176.733 12.6753 177.26 12.5689 177.643 12.3567C178.041 12.1445 178.318 11.7835 178.475 11.274C178.646 10.7502 178.731 10.0282 178.731 9.10833V0.297241H181.993ZM187.868 0.233543C188.664 0.233543 189.468 0.240615 190.278 0.254763C191.088 0.254763 191.884 0.268912 192.665 0.297241C193.448 0.325537 194.179 0.37509 194.862 0.445864L194.713 2.80255H189.063C188.707 2.80255 188.437 2.89454 188.252 3.07853C188.082 3.26256 187.996 3.53144 187.996 3.88547V11.3587C187.996 11.7127 188.082 11.9817 188.252 12.1657C188.437 12.3497 188.707 12.4418 189.063 12.4418H194.713L194.862 14.7984C194.179 14.8549 193.448 14.9043 192.665 14.9469C191.884 14.9751 191.088 14.9894 190.278 14.9894C189.468 15.0037 188.664 15.0107 187.868 15.0107C186.93 15.0107 186.169 14.7417 185.587 14.2039C185.018 13.652 184.734 12.9369 184.734 12.0595V3.18472C184.734 2.29298 185.018 1.57817 185.587 1.04032C186.169 0.502457 186.93 0.233543 187.868 0.233543ZM185.118 6.17839H193.924V8.47133H185.118V6.17839Z" fill="#121212"/>
<path d="M3.1773 0.233543C3.93043 0.233543 4.69824 0.240618 5.48006 0.254766C6.27622 0.254766 7.0507 0.275988 7.80417 0.318465C8.57163 0.346761 9.28242 0.396312 9.93646 0.467085L9.76573 2.80255H4.43508C4.05151 2.80255 3.75999 2.89454 3.56088 3.07853C3.36208 3.26256 3.26236 3.53147 3.26236 3.88534V14.9469H0V3.22716C0 2.32128 0.291514 1.59943 0.874211 1.06157C1.45724 0.50953 2.22471 0.233543 3.1773 0.233543ZM0.383905 6.43313H8.97686V8.72608H0.383905V6.43313ZM17.9905 0.297243C18.2603 0.297243 18.4951 0.375091 18.6939 0.530786C18.9074 0.686481 19.0495 0.891692 19.1205 1.14649L23.3851 14.9469H20.0587L17.0522 4.18258C16.9952 3.94197 16.9385 3.70135 16.8815 3.4607C16.8247 3.20593 16.775 2.96532 16.7323 2.73885H16.1566C16.1139 2.96532 16.0643 3.20593 16.0072 3.4607C15.9649 3.70135 15.9078 3.94197 15.8368 4.18258L12.8302 14.9469H9.48252L13.7685 1.14649C13.8396 0.891692 13.9746 0.686481 14.1737 0.530786C14.3869 0.375091 14.6283 0.297243 14.8986 0.297243H17.9905ZM20.2505 8.64117V11.0828H12.6172V8.64117H20.2505ZM29.7461 0.0212221C30.4709 0.0212221 31.2597 0.0636657 32.1129 0.148621C32.9657 0.219394 33.7973 0.37509 34.6074 0.615708L34.3943 2.76007C33.7689 2.74593 33.0368 2.73178 32.1979 2.71763C31.3594 2.70344 30.5349 2.69638 29.7248 2.69638C29.3265 2.69638 28.9853 2.71052 28.7011 2.73885C28.4309 2.753 28.2108 2.80963 28.04 2.90869C27.8696 2.99362 27.7488 3.12808 27.6778 3.31208C27.6064 3.4961 27.5711 3.75087 27.5711 4.07644C27.5711 4.57183 27.6848 4.93277 27.9123 5.15923C28.1537 5.3857 28.559 5.59095 29.1277 5.77494L31.9634 6.68789C33.1432 7.0842 33.9607 7.62206 34.4157 8.30147C34.8706 8.98083 35.0981 9.87258 35.0981 10.9767C35.0981 11.8118 34.9983 12.5053 34.7995 13.0573C34.6004 13.6093 34.2875 14.041 33.8613 14.3525C33.4347 14.6638 32.8733 14.8832 32.1766 15.0106C31.4801 15.1522 30.6273 15.2229 29.618 15.2229C29.1347 15.2229 28.4453 15.1876 27.5497 15.1168C26.6542 15.0602 25.6305 14.9045 24.4791 14.6497L24.6926 12.3567C25.5311 12.3708 26.2563 12.3921 26.8673 12.4204C27.4927 12.4345 28.026 12.4487 28.4667 12.4628C28.9072 12.4628 29.2912 12.4628 29.618 12.4628C30.1867 12.4628 30.6273 12.4275 30.9401 12.3567C31.267 12.2859 31.4945 12.1443 31.6222 11.9321C31.7504 11.7198 31.8144 11.4154 31.8144 11.0191C31.8144 10.6794 31.7643 10.4105 31.6649 10.2123C31.5795 10 31.4305 9.83725 31.2173 9.724C31.0182 9.59658 30.741 9.48333 30.3855 9.38433L27.4003 8.36517C26.2776 7.95471 25.4815 7.41685 25.0125 6.75159C24.5432 6.08633 24.3087 5.20878 24.3087 4.11888C24.3087 3.26963 24.4081 2.58315 24.6072 2.05944C24.8204 1.52158 25.1403 1.10402 25.5668 0.806773C26.0075 0.50953 26.5688 0.304316 27.2512 0.191065C27.9476 0.0778471 28.7792 0.0212221 29.7461 0.0212221ZM40.6619 0.297243V14.9469H37.3995V0.297243H40.6619ZM46.1202 5.92356V8.36517H40.491V5.92356H46.1202ZM49.1481 0.297243V14.9469H45.8858V0.297243H49.1481ZM55.3829 0.297243V14.9469H52.1419V0.297243H55.3829ZM64.2104 0C65.3761 0 66.3641 0.127366 67.1742 0.382164C67.9844 0.622781 68.6311 1.03324 69.1144 1.61358C69.6121 2.17973 69.9746 2.95824 70.2021 3.94904C70.4296 4.92569 70.543 6.15003 70.543 7.62206C70.543 9.09408 70.4296 10.3255 70.2021 11.3163C69.9746 12.293 69.6121 13.0715 69.1144 13.6518C68.6311 14.218 67.9844 14.6284 67.1742 14.8833C66.3641 15.1238 65.3761 15.2442 64.2104 15.2442C63.0447 15.2442 62.0568 15.1238 61.2466 14.8833C60.4364 14.6284 59.7823 14.218 59.2847 13.6518C58.7874 13.0715 58.4248 12.293 58.1974 11.3163C57.9699 10.3255 57.8562 9.09408 57.8562 7.62206C57.8562 6.15003 57.9699 4.92569 58.1974 3.94904C58.4248 2.95824 58.7874 2.17973 59.2847 1.61358C59.7823 1.03324 60.4364 0.622781 61.2466 0.382164C62.0568 0.127366 63.0447 0 64.2104 0ZM64.2104 2.56901C63.4569 2.56901 62.8669 2.71763 62.4407 3.01487C62.0284 3.31208 61.7299 3.82872 61.5451 4.56475C61.3743 5.28663 61.2893 6.30573 61.2893 7.62206C61.2893 8.92425 61.3743 9.94333 61.5451 10.6794C61.7299 11.4154 62.0284 11.9321 62.4407 12.2293C62.8669 12.5265 63.4569 12.6752 64.2104 12.6752C64.9496 12.6752 65.5253 12.5265 65.9374 12.2293C66.3641 11.9321 66.6626 11.4154 66.833 10.6794C67.0178 9.94333 67.1102 8.92425 67.1102 7.62206C67.1102 6.30573 67.0178 5.28663 66.833 4.56475C66.6626 3.82872 66.3641 3.31208 65.9374 3.01487C65.5253 2.71763 64.9496 2.56901 64.2104 2.56901ZM85.4795 0.297243V13.7792C85.4795 14.5577 85.0886 14.9469 84.3061 14.9469H82.5154C82.1599 14.9469 81.8897 14.8691 81.7049 14.7133C81.5201 14.5435 81.3497 14.2958 81.1932 13.9703L77.1207 6.2845C76.9499 5.95893 76.7795 5.59803 76.6091 5.20168C76.4526 4.80537 76.3176 4.4232 76.2038 4.05518H75.9693C76.0121 4.43735 76.0474 4.82658 76.0758 5.22293C76.1045 5.60509 76.1185 5.98726 76.1185 6.36943V14.9469H73.0269V1.46496C73.0269 0.68648 73.4248 0.297243 74.2209 0.297243H75.9907C76.3316 0.297243 76.5877 0.382165 76.7582 0.552008C76.943 0.707703 77.1207 0.948317 77.2912 1.27386L81.236 8.72608C81.4064 9.05167 81.5841 9.41258 81.7689 9.80892C81.9537 10.2053 82.1315 10.6157 82.302 11.0403H82.5578C82.5154 10.6157 82.4797 10.2053 82.4514 9.80892C82.437 9.39842 82.43 8.99508 82.43 8.59875L82.4087 0.297243H85.4795Z" fill="#121212"/>
</g>
<defs>
<clipPath id="clip0_434_664">
<rect width="195" height="20" fill="white"/>
</clipPath>
</defs>
</svg>
