<svg width="0" height="0" xmlns="http://www.w3.org/2000/svg">
	<symbol xmlns="http://www.w3.org/2000/svg" id="arrow1" viewBox="0 0 64 8">
		<path d="M63.3536 4.0355C63.5488 3.84024 63.5488 3.52366 63.3536 3.3284L60.1716 0.146417C59.9763 -0.048845 59.6597 -0.048845 59.4645 0.146417C59.2692 0.341679 59.2692 0.658262 59.4645 0.853524L62.2929 3.68195L59.4645 6.51038C59.2692 6.70564 59.2692 7.02222 59.4645 7.21748C59.6597 7.41275 59.9763 7.41275 60.1716 7.21748L63.3536 4.0355ZM0 3.68195L-4.37114e-08 4.18195L63 4.18195L63 3.68195L63 3.18195L4.37114e-08 3.18195L0 3.68195Z"/>
	</symbol>

	<symbol xmlns="http://www.w3.org/2000/svg" id="arrow2" viewBox="0 0 19 8">
		<path d="M18.3536 4.03556C18.5488 3.8403 18.5488 3.52372 18.3536 3.32846L15.1716 0.146474C14.9763 -0.0487879 14.6597 -0.0487879 14.4645 0.146474C14.2692 0.341736 14.2692 0.658319 14.4645 0.853581L17.2929 3.68201L14.4645 6.51044C14.2692 6.7057 14.2692 7.02228 14.4645 7.21754C14.6597 7.4128 14.9763 7.4128 15.1716 7.21754L18.3536 4.03556ZM0 3.68201L-4.37114e-08 4.18201L18 4.18201L18 3.68201L18 3.18201L4.37114e-08 3.18201L0 3.68201Z"/>
	</symbol>

	<symbol xmlns="http://www.w3.org/2000/svg" id="arrow3" viewBox="0 0 10 15">
		<path d="M8.75928 0.376343L0.759277 7.37611L8.75928 14.3763"/>
	</symbol>

	<symbol xmlns="http://www.w3.org/2000/svg" id="close" viewBox="0 0 16 16">
		<path d="M0.34668 0.360474L15.3467 14.778M15.3467 0.942949L0.346683 15.3605"/>
	</symbol>

	<symbol xmlns="http://www.w3.org/2000/svg" id="lupa" viewBox="0 0 20 20">
		<path d="M18.2 18.2L14.33 14.33M16.4 9.2C16.4 13.1765 13.1765 16.4 9.2 16.4C5.22355 16.4 2 13.1765 2 9.2C2 5.22355 5.22355 2 9.2 2C13.1765 2 16.4 5.22355 16.4 9.2Z" stroke-linecap="round" stroke-linejoin="round"/>
	</symbol>

	<symbol xmlns="http://www.w3.org/2000/svg" id="card" viewBox="0 0 20 20">
		<path d="M2 5.5C2 5.22386 2.22386 5 2.5 5H17.5C17.7761 5 18 5.22386 18 5.5V17.2C18 18.1941 17.1941 19 16.2 19H3.8C2.80589 19 2 18.1941 2 17.2V5.5Z"/>
		<path d="M5 6L6 5.16667C6 4.33333 6.42143 2.60143 7.17157 1.97631C7.92172 1.35119 8.93913 1 10 1C11.0609 1 12.0783 1.35119 12.8284 1.97631C13.5786 2.60143 14 4.33333 14 5.16667L15 6" stroke-linecap="round" stroke-linejoin="round"/>
	</symbol>

	<symbol xmlns="http://www.w3.org/2000/svg" id="favorite" viewBox="0 0 20 20">
		<path d="M16.3627 11.7999C17.7173 10.4859 19.09 8.9109 19.09 6.8499C19.09 5.53708 18.5632 4.27803 17.6256 3.34972C16.6879 2.42142 15.4161 1.8999 14.09 1.8999C12.49 1.8999 11.3627 2.3499 9.99911 3.6999C8.63548 2.3499 7.5082 1.8999 5.9082 1.8999C4.58212 1.8999 3.31035 2.42142 2.37267 3.34972C1.43499 4.27803 0.908203 5.53708 0.908203 6.8499C0.908203 8.9199 2.27184 10.4949 3.63548 11.7999L9.99911 18.0999L16.3627 11.7999Z" stroke-linecap="round" stroke-linejoin="round"/>
	</symbol>

	<symbol xmlns="http://www.w3.org/2000/svg" id="user" viewBox="0 0 20 20">
		<path d="M10 11C12.1217 11 14.1566 11.8429 15.6569 13.3431C17.1571 14.8434 18 16.8783 18 19H2C2 16.8783 2.84285 14.8434 4.34315 13.3431C5.84344 11.8429 7.87827 11 10 11ZM10 11C12.7614 11 15 8.76142 15 6C15 3.23858 12.7614 1 10 1C7.23858 1 5 3.23858 5 6C5 8.76142 7.23858 11 10 11Z" stroke-linecap="round" stroke-linejoin="round"/>
	</symbol>

	<symbol xmlns="http://www.w3.org/2000/svg" id="share" viewBox="0 0 18 20">
		<path d="M5.93139 11.3728L12.0784 14.991M12.0694 5.00918L5.93139 8.62736M17.1004 3.63645C17.1004 5.14268 15.8916 6.36372 14.4004 6.36372C12.9092 6.36372 11.7004 5.14268 11.7004 3.63645C11.7004 2.13022 12.9092 0.90918 14.4004 0.90918C15.8916 0.90918 17.1004 2.13022 17.1004 3.63645ZM6.30039 10.0001C6.30039 11.5063 5.09156 12.7274 3.60039 12.7274C2.10922 12.7274 0.900391 11.5063 0.900391 10.0001C0.900391 8.49386 2.10922 7.27282 3.60039 7.27282C5.09156 7.27282 6.30039 8.49386 6.30039 10.0001ZM17.1004 16.3637C17.1004 17.87 15.8916 19.091 14.4004 19.091C12.9092 19.091 11.7004 17.87 11.7004 16.3637C11.7004 14.8575 12.9092 13.6365 14.4004 13.6365C15.8916 13.6365 17.1004 14.8575 17.1004 16.3637Z" stroke-linecap="round" stroke-linejoin="round"/>
	</symbol>
</svg>